<svg width="50" height="58" viewBox="0 0 50 58" fill="none" xmlns="http://www.w3.org/2000/svg">
<path fill-rule="evenodd" clip-rule="evenodd" d="M13.7886 3.15985C13.7905 3.98747 13.559 4.70192 13.0941 5.30288L20.1234 12.9688H29.8764L36.906 5.30288C36.4412 4.70192 36.2097 3.98747 36.2115 3.15985C36.2113 2.29115 36.4707 1.54915 36.9908 0.934181C37.5092 0.314174 38.1341 0.00251843 38.866 0C39.6001 0.00251843 40.2277 0.314174 40.7483 0.934181C41.2683 1.54915 41.5278 2.2913 41.5278 3.15985C41.5278 4.03138 41.2683 4.77637 40.7483 5.39449C40.2275 6.01135 39.6001 6.3197 38.866 6.3197C38.4677 6.31891 38.1023 6.2273 37.7703 6.04487L35.1157 12.9688H38.5418C40.4293 12.9688 42.0419 13.7628 43.3797 15.3502C44.7173 16.9351 45.3859 18.8464 45.3859 21.0839V29.7208L48.2948 25.4069H50V37.0481H48.2948L45.3859 32.7341V38.2934H4.62179V32.7247L1.70523 37.0481H0V25.4069H1.70523L4.62179 29.7298V21.0839C4.62179 18.8464 5.29044 16.9352 6.628 15.3502C7.96582 13.7628 9.5785 12.9688 11.466 12.9688H14.8841L12.2299 6.04487C11.8975 6.2273 11.5322 6.31891 11.134 6.3197C10.3998 6.3197 9.77221 6.01135 9.25127 5.39449C8.73152 4.77621 8.47191 4.03138 8.47204 3.15985C8.47191 2.29115 8.73152 1.54915 9.25127 0.934181C9.77235 0.314174 10.3998 0.00251843 11.134 0C11.8658 0.00251843 12.4906 0.314174 13.0091 0.934181C13.529 1.54915 13.7887 2.29115 13.7886 3.15985ZM18.8965 24.7474C18.2407 23.9664 17.4459 23.5757 16.5124 23.5751C15.576 23.5757 14.7789 23.9664 14.1203 24.7474C13.4624 25.5287 13.1332 26.4755 13.1327 27.5866C13.1332 28.6947 13.4624 29.638 14.1203 30.4165C14.7789 31.1976 15.576 31.5882 16.5124 31.5889C17.4459 31.5882 18.2407 31.1976 18.8965 30.4165C19.5544 29.638 19.8837 28.6947 19.8841 27.5866C19.8837 26.4755 19.5544 25.5287 18.8965 24.7474ZM35.8716 30.4167C36.5296 29.6382 36.8587 28.6949 36.8595 27.5868C36.8587 26.4755 36.5296 25.5289 35.8716 24.7476C35.2159 23.9665 34.4212 23.5758 33.4876 23.5752C32.5511 23.5758 31.7542 23.9665 31.0956 24.7476C30.4378 25.5289 30.1087 26.4757 30.1079 27.5868C30.1087 28.6949 30.4378 29.6382 31.0956 30.4167C31.7542 31.1977 32.5513 31.5884 33.4876 31.589C34.4211 31.5884 35.2159 31.1977 35.8716 30.4167Z" fill="#006B5E"/>
<path fill-rule="evenodd" clip-rule="evenodd" d="M4.6218 43.6908V40.6318H16.2345C16.6236 41.3247 17.0815 41.9842 17.6078 42.6098C19.6534 45.0363 22.12 46.2483 25.0076 46.2459C27.8969 46.2484 30.3606 45.0363 32.3995 42.6098C32.9285 41.9841 33.389 41.3247 33.7811 40.6318H45.3856V43.6908C45.3856 45.9344 44.717 47.8517 43.3794 49.4427C42.0834 50.9807 40.5301 51.7743 38.7192 51.8241H11.466C9.57851 51.8241 7.96582 51.0301 6.628 49.4427C5.29044 47.8516 4.6218 45.9344 4.6218 43.6908Z" fill="#006B5E"/>
<path fill-rule="evenodd" clip-rule="evenodd" d="M14.8148 54.1625L14.8225 54.172C21.5766 54.172 28.3308 54.172 35.0849 54.172C35.0823 55.4477 35.0798 56.7243 35.0768 58H14.8148V54.1625Z" fill="#006B5E"/>
</svg>
