<svg width="17" height="17" viewBox="0 0 17 17" fill="none" xmlns="http://www.w3.org/2000/svg">
<path d="M8.98875 8.5425C8.85859 8.65997 8.68949 8.72499 8.51416 8.72499C8.33884 8.72499 8.16974 8.65997 8.03958 8.5425L2.03291 3.08124C2.26862 2.91979 2.54763 2.83337 2.83333 2.83333H14.1667C14.4524 2.83337 14.7314 2.91979 14.9671 3.08124L8.98875 8.5425Z" fill="white"/>
<path d="M15.5833 4.43417V12.0417C15.5833 12.6053 15.3595 13.1458 14.9609 13.5443C14.5624 13.9428 14.0219 14.1667 13.4583 14.1667H3.54167C2.97809 14.1667 2.43758 13.9428 2.03907 13.5443C1.64056 13.1458 1.41667 12.6053 1.41667 12.0417V4.43417L7.56501 10.0442C7.8243 10.2694 8.15657 10.3927 8.5 10.3913C8.84773 10.3905 9.18304 10.262 9.44209 10.03L15.5833 4.43417Z" fill="white"/>
</svg>
