<svg width="24" height="24" viewBox="0 0 24 24" fill="none" xmlns="http://www.w3.org/2000/svg">
<path d="M11.75 0.422424C5.409 0.422424 0.25 5.5814 0.25 11.9224C0.25 17.4215 4.03514 22.2534 9.25028 23.4111C9.3916 23.4424 9.5404 23.4078 9.65411 23.317C9.76735 23.2258 9.83333 23.0887 9.83333 22.9431V20.0682C9.83333 19.8033 9.61902 19.589 9.35417 19.589H8.39583C7.26015 19.589 6.24613 18.188 5.43099 17.0626C5.3505 16.9513 5.27095 16.8418 5.19234 16.7346C5.52692 16.8914 5.85354 17.0551 6.12494 17.1913C6.91107 17.5853 7.65369 17.9578 8.26107 18.1318C8.28774 18.1407 8.32049 18.1566 8.35699 18.173C8.59096 18.2783 9.02567 18.4739 9.41546 18.2203C9.83333 17.9498 9.83333 17.3803 9.83333 17.1932V16.8591C9.83333 16.6448 9.69108 16.4566 9.48472 16.3982C6.82731 15.6452 5.04167 13.6542 5.04167 11.4432C5.04167 10.2935 5.51381 9.19572 6.40757 8.26921C6.54514 8.12649 6.58071 7.91451 6.49742 7.73483C6.14085 6.96601 6.21619 5.92018 6.63967 5.29221C7.19885 5.51027 7.92415 5.96744 8.39536 6.52709C8.52498 6.68057 8.73789 6.73813 8.92647 6.66841C10.7233 6.00955 12.7767 6.00955 14.5735 6.66841C14.764 6.73906 14.976 6.68104 15.1046 6.52709C15.5758 5.96744 16.3011 5.51027 16.8603 5.29221C17.2838 5.92018 17.3591 6.96601 17.0026 7.73483C16.9193 7.91451 16.9549 8.12649 17.0924 8.26921C17.9862 9.19572 18.4583 10.2935 18.4583 11.4432C18.4583 13.7642 16.4747 15.8427 13.6348 16.4974C13.4898 16.531 13.3686 16.6298 13.3068 16.765C13.2451 16.9002 13.2493 17.0565 13.319 17.188C13.5562 17.6372 13.6667 18.2479 13.6667 19.1098V22.9431C13.6667 23.0887 13.7326 23.2258 13.8459 23.317C13.932 23.3858 14.0377 23.4223 14.1458 23.4223C14.1805 23.4223 14.2151 23.4186 14.2497 23.4111C19.4649 22.2534 23.25 17.4215 23.25 11.9224C23.25 5.58139 18.091 0.422424 11.75 0.422424Z" fill="#D1D3D3"/>
<path opacity="0.2" d="M9.48472 16.6377C9.69108 16.6962 9.83333 16.8843 9.83333 17.0986V16.859C9.83333 16.6447 9.69108 16.4566 9.48472 16.3981C6.87673 15.6592 5.1187 13.7262 5.05383 11.5647C5.05272 11.6044 5.04166 11.6429 5.04166 11.6827C5.04166 13.8937 6.82731 15.8848 9.48472 16.6377Z" fill="white"/>
<path opacity="0.2" d="M13.6348 16.7369C16.4747 16.0823 18.4583 14.0037 18.4583 11.6827C18.4583 11.6417 18.447 11.6022 18.4458 11.5613C18.3789 13.8337 16.4258 15.854 13.6348 16.4973C13.4898 16.531 13.3686 16.6297 13.3068 16.765C13.2606 16.8661 13.2636 16.9765 13.2911 17.0821C13.298 17.0564 13.2956 17.0292 13.3068 17.0046C13.3686 16.8693 13.4898 16.7706 13.6348 16.7369Z" fill="white"/>
<path opacity="0.2" d="M11.75 0.422394C5.409 0.422394 0.25 5.58136 0.25 11.9223C0.25 11.966 0.255089 12.0086 0.255557 12.0521C0.315336 5.7621 5.44602 0.661976 11.75 0.661976C18.054 0.661976 23.1847 5.7621 23.2444 12.0521C23.2449 12.0086 23.25 11.966 23.25 11.9223C23.25 5.58136 18.091 0.422394 11.75 0.422394Z" fill="white"/>
<path opacity="0.1" d="M9.25028 23.4111C9.3916 23.4424 9.5404 23.4078 9.65411 23.317C9.76735 23.2258 9.83333 23.0887 9.83333 22.9431V22.7036C9.83333 22.8491 9.76735 22.9862 9.65411 23.0774C9.5404 23.1682 9.3916 23.2028 9.25028 23.1715C4.07649 22.023 0.314985 17.2574 0.255557 11.8126C0.255206 11.8495 0.25 11.8853 0.25 11.9224C0.25 17.4215 4.03514 22.2534 9.25028 23.4111Z" fill="#F9F9F9"/>
<path opacity="0.1" d="M14.2497 23.1715C14.2151 23.179 14.1805 23.1827 14.1458 23.1827C14.0377 23.1827 13.932 23.1462 13.8459 23.0775C13.7327 22.9862 13.6667 22.8491 13.6667 22.7036V22.9432C13.6667 23.0887 13.7327 23.2258 13.8459 23.317C13.932 23.3858 14.0377 23.4223 14.1458 23.4223C14.1805 23.4223 14.2151 23.4186 14.2497 23.4111C19.4649 22.2534 23.25 17.4215 23.25 11.9224C23.25 11.8854 23.2448 11.8496 23.2444 11.8126C23.185 17.2574 19.4235 22.023 14.2497 23.1715Z" fill="#F9F9F9"/>
<path opacity="0.1" d="M16.8603 5.05542C16.3011 5.27348 15.5758 5.73065 15.1046 6.2903C14.9759 6.44425 14.764 6.50227 14.5735 6.43161C12.7766 5.77276 10.7233 5.77276 8.92647 6.43161C8.73789 6.50134 8.52498 6.44378 8.39536 6.2903C7.92415 5.73065 7.19885 5.27348 6.63967 5.05542C6.39792 5.41392 6.2848 5.90846 6.28556 6.41009C6.31948 5.9941 6.43688 5.59571 6.63967 5.295C7.19885 5.51306 7.92415 5.97023 8.39536 6.52988C8.52498 6.68336 8.73789 6.74092 8.92647 6.6712C10.7233 6.01234 12.7766 6.01234 14.5735 6.6712C14.764 6.74185 14.9759 6.68383 15.1046 6.52988C15.5758 5.97023 16.3011 5.51306 16.8603 5.295C17.0631 5.59571 17.1805 5.9941 17.2144 6.41009C17.2152 5.90846 17.1021 5.41392 16.8603 5.05542Z" fill="#F9F9F9"/>
<path d="M11.75 0.422424C5.409 0.422424 0.25 5.5814 0.25 11.9224C0.25 17.4215 4.03514 22.2534 9.25028 23.4111C9.3916 23.4424 9.5404 23.4078 9.65411 23.317C9.76735 23.2258 9.83333 23.0887 9.83333 22.9431V20.0682C9.83333 19.8033 9.61902 19.589 9.35417 19.589H8.39583C7.26015 19.589 6.24613 18.188 5.43099 17.0626C5.3505 16.9513 5.27095 16.8418 5.19234 16.7346C5.52692 16.8914 5.85354 17.0551 6.12494 17.1913C6.91107 17.5853 7.65369 17.9578 8.26107 18.1318C8.28774 18.1407 8.32049 18.1566 8.35699 18.173C8.59096 18.2783 9.02567 18.4739 9.41546 18.2203C9.83333 17.9498 9.83333 17.3803 9.83333 17.1932V16.8591C9.83333 16.6448 9.69108 16.4566 9.48472 16.3982C6.82731 15.6452 5.04167 13.6542 5.04167 11.4432C5.04167 10.2935 5.51381 9.19572 6.40757 8.26921C6.54514 8.12649 6.58071 7.91451 6.49742 7.73483C6.14085 6.96601 6.21619 5.92018 6.63967 5.29221C7.19885 5.51027 7.92415 5.96744 8.39536 6.52709C8.52498 6.68057 8.73789 6.73813 8.92647 6.66841C10.7233 6.00955 12.7767 6.00955 14.5735 6.66841C14.764 6.73906 14.976 6.68104 15.1046 6.52709C15.5758 5.96744 16.3011 5.51027 16.8603 5.29221C17.2838 5.92018 17.3591 6.96601 17.0026 7.73483C16.9193 7.91451 16.9549 8.12649 17.0924 8.26921C17.9862 9.19572 18.4583 10.2935 18.4583 11.4432C18.4583 13.7642 16.4747 15.8427 13.6348 16.4974C13.4898 16.531 13.3686 16.6298 13.3068 16.765C13.2451 16.9002 13.2493 17.0565 13.319 17.188C13.5562 17.6372 13.6667 18.2479 13.6667 19.1098V22.9431C13.6667 23.0887 13.7326 23.2258 13.8459 23.317C13.932 23.3858 14.0377 23.4223 14.1458 23.4223C14.1805 23.4223 14.2151 23.4186 14.2497 23.4111C19.4649 22.2534 23.25 17.4215 23.25 11.9224C23.25 5.58139 18.091 0.422424 11.75 0.422424Z" fill="url(#paint0_linear_2_51)"/>
<defs>
<linearGradient id="paint0_linear_2_51" x1="1.27957" y1="7.16651" x2="22.1619" y2="16.9041" gradientUnits="userSpaceOnUse">
<stop stop-color="white" stop-opacity="0.2"/>
<stop offset="1" stop-color="white" stop-opacity="0"/>
</linearGradient>
</defs>
</svg>
