<svg width="27" height="28" viewBox="0 0 27 28" fill="none" xmlns="http://www.w3.org/2000/svg">
<path d="M9 27.2803C4.02944 27.2803 0 23.2509 0 18.2803V9.00001C0 4.02944 4.02944 0 9 0H18C22.9706 0 27 4.02944 27 9V18.2803C27 23.2508 22.9706 27.2803 18 27.2803H9Z" fill="#FFD600"/>
<path d="M18.2267 20.517C18.7625 21.3728 19.3449 22.1928 20.5784 22.1928C21.6145 22.1928 22.1581 21.6865 22.1581 20.986C22.1581 20.1477 21.5959 19.85 20.456 19.362L19.8311 19.1001C18.0277 18.3478 16.8282 17.4052 16.8282 15.4142C16.8282 13.5793 18.2569 12.1829 20.4893 12.1829C22.0791 12.1829 23.2213 12.7242 24.0452 14.1419L22.0984 15.3655C21.6702 14.6132 21.2072 14.317 20.4893 14.317C19.7568 14.317 19.293 14.7716 19.293 15.3655C19.293 16.0994 19.7576 16.3964 20.8301 16.8509L21.455 17.1128C23.5806 18.0029 24.7792 18.912 24.7792 20.9555C24.7792 23.1575 23.0106 24.3643 20.6365 24.3643C18.3142 24.3643 16.9955 23.2184 16.2614 21.7999L18.2267 20.517ZM9.25506 20.5794C9.64688 21.2692 10.2424 21.7999 11.0988 21.7999C11.9181 21.7999 12.3896 21.4817 12.3896 20.2444V12.1821H14.9705V20.6342C14.9705 23.1978 13.4582 24.3643 11.2498 24.3643C9.25429 24.3643 7.81399 23.0349 7.22704 21.7999L9.25506 20.5794Z" fill="#000001"/>
</svg>
