<svg width="36" height="363" viewBox="0 0 36 363" fill="none" xmlns="http://www.w3.org/2000/svg">
<path d="M21 30L35.3205 1.08761e-06L0.679506 -1.08761e-06L15 30L21 30ZM18 363L35.3205 333L0.679485 333L18 363ZM15 18.15L15 30.25L21 30.25L21 18.15L15 18.15ZM15 42.35L15 54.45L21 54.45L21 42.35L15 42.35ZM15 66.55L15 78.65L21 78.65L21 66.55L15 66.55ZM15 90.75L15 102.85L21 102.85L21 90.75L15 90.75ZM15 114.95L15 127.05L21 127.05L21 114.95L15 114.95ZM15 139.15L15 151.25L21 151.25L21 139.15L15 139.15ZM15 163.35L15 175.45L21 175.45L21 163.35L15 163.35ZM15 187.55L15 199.65L21 199.65L21 187.55L15 187.55ZM15 211.75L15 223.85L21 223.85L21 211.75L15 211.75ZM15 235.95L15 248.05L21 248.05L21 235.95L15 235.95ZM15 260.15L15 272.25L21 272.25L21 260.15L15 260.15ZM15 284.35L15 296.45L21 296.45L21 284.35L15 284.35ZM15 308.55L15 320.65L21 320.65L21 308.55L15 308.55ZM15 332.75L15 344.85L21 344.85L21 332.75L15 332.75Z" fill="#1C1C1C"/>
</svg>
