<svg width="17" height="17" viewBox="0 0 17 17" fill="none" xmlns="http://www.w3.org/2000/svg">
<g clip-path="url(#clip0_2_66)">
<path d="M4.69271 7.64646C5.71271 9.65104 7.3525 11.2908 9.36062 12.3108L10.919 10.749C11.1137 10.5542 11.3935 10.4975 11.6379 10.5754C12.4312 10.8375 13.2848 10.9792 14.1667 10.9792C14.5598 10.9792 14.875 11.2944 14.875 11.6875V14.1667C14.875 14.5598 14.5598 14.875 14.1667 14.875C7.51542 14.875 2.125 9.48458 2.125 2.83333C2.125 2.44021 2.44375 2.125 2.83333 2.125H5.3125C5.70562 2.125 6.02083 2.44021 6.02083 2.83333C6.02083 3.71521 6.1625 4.56875 6.42458 5.36208C6.5025 5.60646 6.44583 5.88625 6.25104 6.08104L4.69271 7.64646V7.64646Z" fill="white"/>
</g>
<defs>
<clipPath id="clip0_2_66">
<rect width="17" height="17" fill="white"/>
</clipPath>
</defs>
</svg>
