<svg width="26" height="26" viewBox="0 0 26 26" fill="none" xmlns="http://www.w3.org/2000/svg">
<path d="M13.2676 4.95152e-05C12.2088 0.00343323 11.4747 0.096147 10.5875 0.248414C7.96723 0.701831 7.48989 1.65401 7.48989 3.4088V6.09073H13.6183V7.44421H7.25701H4.29495C2.50001 7.44421 0.9291 8.28473 0.431338 10.2994C-0.131113 12.6118 -0.156308 14.06 0.431338 16.4747C0.877349 18.2755 1.85994 19.6256 3.65556 19.6256H6.12871V16.1715C6.12871 14.1643 7.95769 12.1814 10.0536 12.1814H14.9808C16.6988 12.1814 18.3855 10.9213 18.3855 9.21931V3.4088C18.3855 1.75823 17.1877 0.523848 15.5133 0.24706C15.5549 0.243 14.3176 -0.00401094 13.2676 4.95152e-05ZM9.87384 2.70702C10.4329 2.70702 10.8952 3.16517 10.8952 3.72348C10.8952 4.28721 10.4329 4.73724 9.87384 4.73724C9.3039 4.73724 8.85244 4.28789 8.85244 3.72348C8.85244 3.1672 9.3039 2.70702 9.87384 2.70702Z" fill="#0277BD"/>
<path d="M12.6078 25.7163C13.6666 25.7129 14.4007 25.6202 15.2879 25.4679C17.9082 25.0145 18.3855 24.0623 18.3855 22.3075V19.6256H12.2571V18.2721H18.6191H21.5811C23.3761 18.2721 24.947 17.4316 25.4448 15.4169C26.0072 13.1045 26.0324 11.6563 25.4448 9.24164C24.9981 7.44083 24.0155 6.09073 22.2199 6.09073H19.7467V9.54482C19.7467 11.552 17.9177 13.5349 15.8218 13.5349H10.8946C9.17657 13.5349 7.4899 14.795 7.4899 16.497V22.3075C7.4899 23.9581 8.68766 25.1925 10.3621 25.4692C10.3205 25.4733 11.5578 25.7203 12.6078 25.7163ZM16.0022 23.0093C15.4432 23.0093 14.9808 22.5511 14.9808 21.9928C14.9808 21.4291 15.4432 20.9791 16.0022 20.9791C16.5722 20.9791 17.0236 21.4284 17.0236 21.9928C17.0236 22.5491 16.5715 23.0093 16.0022 23.0093Z" fill="#FFC107"/>
</svg>
