<svg width="23" height="17" viewBox="0 0 23 17" fill="none" xmlns="http://www.w3.org/2000/svg">
<path d="M11.2539 16.3812H12.6283C12.6283 16.3812 13.0436 16.3254 13.2551 16.0466C13.4508 15.7909 13.4433 15.3103 13.4433 15.3103C13.4433 15.3103 13.4162 13.0617 14.273 12.7303C15.1169 12.4043 16.2007 14.9041 17.3494 15.8662C18.2177 16.5933 18.8777 16.434 18.8777 16.434L21.9498 16.3813C21.9498 16.3813 23.5569 16.2604 22.795 14.7198C22.7333 14.5939 22.3508 13.5806 20.5107 11.4982C18.5843 9.3177 18.8428 9.67169 21.1632 5.90151C22.5764 3.60551 23.1416 2.20323 22.9646 1.60378C22.7964 1.03241 21.7572 1.18327 21.7572 1.18327L18.301 1.20794C18.301 1.20794 18.045 1.16568 17.854 1.30423C17.6683 1.44079 17.549 1.75646 17.549 1.75646C17.549 1.75646 17.0014 3.53354 16.2711 5.04488C14.7313 8.23285 14.1148 8.40123 13.863 8.20296C13.2778 7.74217 13.4247 6.34846 13.4247 5.35996C13.4247 2.26975 13.8086 0.981651 12.6757 0.648694C12.2989 0.538217 12.023 0.464545 11.0614 0.452472C9.82772 0.43653 8.78259 0.45763 8.19194 0.80981C7.79794 1.04477 7.49447 1.56897 7.67995 1.59862C7.90856 1.63549 8.42605 1.76859 8.70074 2.22451C9.05593 2.81159 9.04287 4.13334 9.04287 4.13334C9.04287 4.13334 9.24686 7.7699 8.56689 8.22247C8.09958 8.53263 7.4601 7.8996 6.08705 5.00585C5.38414 3.52498 4.85225 1.88593 4.85225 1.88593C4.85225 1.88593 4.75021 1.58134 4.56762 1.41823C4.34619 1.22007 4.03553 1.15724 4.03553 1.15724L0.749444 1.18145C0.749444 1.18145 0.256157 1.19932 0.0750184 1.46007C-0.0858758 1.69357 0.0621006 2.1737 0.0621006 2.1737C0.0621006 2.1737 2.6354 9.51234 5.54827 13.2122C8.22066 16.6039 11.2539 16.3812 11.2539 16.3812Z" fill="#1F8EEF"/>
</svg>
