<svg width="26" height="26" viewBox="0 0 26 26" fill="none" xmlns="http://www.w3.org/2000/svg">
<path d="M22.0563 1.61008L20.0783 1.28045C15.2331 0.47333 10.2669 0.47333 5.42171 1.28045L3.44366 1.61008C1.62278 1.91394 0.25 3.98803 0.25 6.43448V19.9127C0.25 22.3591 1.62278 24.4332 3.44366 24.7371L5.42171 25.0667C7.8443 25.4703 10.3101 25.6751 12.75 25.6751C15.1899 25.6751 17.6557 25.4703 20.0783 25.0667L22.0563 24.7371C23.8772 24.4332 25.25 22.3591 25.25 19.9127V6.43448C25.25 3.98803 23.8772 1.91394 22.0563 1.61008Z" fill="#EE3325"/>
<path opacity="0.2" d="M22.0563 1.61262L20.0783 1.28303C15.2331 0.47601 10.2669 0.47601 5.42171 1.28303L3.44366 1.61262C1.62278 1.91644 0.25 3.99028 0.25 6.43643V6.78365C0.25 4.3375 1.62278 2.26366 3.44366 1.95984L5.42171 1.63025C10.2669 0.823232 15.2331 0.823232 20.0783 1.63025L22.0563 1.95984C23.8772 2.26366 25.25 4.3375 25.25 6.78365V6.43643C25.25 3.99028 23.8772 1.91644 22.0563 1.61262Z" fill="white"/>
<path opacity="0.1" d="M22.0563 24.3878L20.0783 24.7174C17.6557 25.1209 15.1899 25.3257 12.75 25.3257C10.3101 25.3257 7.8443 25.1209 5.42171 24.7174L3.44366 24.3878C1.62278 24.084 0.25 22.0102 0.25 19.564V19.9112C0.25 22.3574 1.62278 24.4312 3.44366 24.7351L5.42171 25.0647C7.8443 25.4682 10.3101 25.673 12.75 25.673C15.1899 25.673 17.6557 25.4682 20.0783 25.0647L22.0563 24.7351C23.8772 24.4312 25.25 22.3574 25.25 19.9112V19.564C25.25 22.0102 23.8772 24.084 22.0563 24.3878Z" fill="#010101"/>
<path d="M10.1458 6.92508V19.4251L17.4375 13.1751L10.1458 6.92508Z" fill="white"/>
<path d="M10.1458 6.92508V13.1751H17.4375L10.1458 6.92508Z" fill="url(#paint0_linear_2_31)"/>
<path d="M17.4375 13.1751L10.1458 19.4251L14.7703 25.591C16.5452 25.5096 18.3224 25.3593 20.0783 25.0668L22.0563 24.7372C23.1094 24.5615 24.002 23.7831 24.5765 22.6937L17.4375 13.1751Z" fill="url(#paint1_linear_2_31)"/>
<path d="M22.0563 1.61008L20.0783 1.28045C15.2331 0.47333 10.2669 0.47333 5.42171 1.28045L3.44366 1.61008C1.62278 1.91394 0.25 3.98803 0.25 6.43448V19.9127C0.25 22.3591 1.62278 24.4332 3.44366 24.7371L5.42171 25.0667C7.8443 25.4703 10.3101 25.6751 12.75 25.6751C15.1899 25.6751 17.6557 25.4703 20.0783 25.0667L22.0563 24.7371C23.8772 24.4332 25.25 22.3591 25.25 19.9127V6.43448C25.25 3.98803 23.8772 1.91394 22.0563 1.61008Z" fill="url(#paint2_linear_2_31)"/>
<defs>
<linearGradient id="paint0_linear_2_31" x1="9.625" y1="7.61952" x2="17.2917" y2="13.3695" gradientUnits="userSpaceOnUse">
<stop stop-color="#010101" stop-opacity="0"/>
<stop offset="1" stop-color="#010101" stop-opacity="0.1"/>
</linearGradient>
<linearGradient id="paint1_linear_2_31" x1="13.1406" y1="15.4321" x2="23.996" y2="23.5736" gradientUnits="userSpaceOnUse">
<stop stop-color="#010101" stop-opacity="0.1"/>
<stop offset="1" stop-color="#010101" stop-opacity="0"/>
</linearGradient>
<linearGradient id="paint2_linear_2_31" x1="0.237797" y1="5.3942" x2="27.3834" y2="14.8878" gradientUnits="userSpaceOnUse">
<stop stop-color="white" stop-opacity="0.2"/>
<stop offset="1" stop-color="white" stop-opacity="0"/>
</linearGradient>
</defs>
</svg>
